<mxfile host="app.diagrams.net" agent="Mozilla/5.0 (X11; Linux x86_64) AppleWebKit/537.36 (KHTML, like Gecko) Chrome/121.0.0.0 Safari/537.36" version="26.0.10">
  <diagram name="PÃ¡gina-1" id="ODcNHxhiuIC-Pdw8sSlY">
    <mxGraphModel dx="810" dy="481" grid="1" gridSize="10" guides="1" tooltips="1" connect="1" arrows="1" fold="1" page="1" pageScale="1" pageWidth="827" pageHeight="1169" math="0" shadow="0">
      <root>
        <mxCell id="0" />
        <mxCell id="1" parent="0" />
        <mxCell id="pHYF0P7ba6LXsxmvMec0-6" style="edgeStyle=orthogonalEdgeStyle;rounded=0;orthogonalLoop=1;jettySize=auto;html=1;" edge="1" parent="1" source="pHYF0P7ba6LXsxmvMec0-1" target="pHYF0P7ba6LXsxmvMec0-5">
          <mxGeometry relative="1" as="geometry" />
        </mxCell>
        <mxCell id="pHYF0P7ba6LXsxmvMec0-1" value="BFF" style="rounded=1;whiteSpace=wrap;html=1;fillColor=#f8cecc;strokeColor=#b85450;" vertex="1" parent="1">
          <mxGeometry x="30" y="190" width="120" height="60" as="geometry" />
        </mxCell>
        <mxCell id="pHYF0P7ba6LXsxmvMec0-19" style="edgeStyle=orthogonalEdgeStyle;rounded=0;orthogonalLoop=1;jettySize=auto;html=1;" edge="1" parent="1" source="pHYF0P7ba6LXsxmvMec0-2" target="pHYF0P7ba6LXsxmvMec0-18">
          <mxGeometry relative="1" as="geometry" />
        </mxCell>
        <mxCell id="pHYF0P7ba6LXsxmvMec0-2" value="PEDIDOS" style="rounded=1;whiteSpace=wrap;html=1;fillColor=#d5e8d4;strokeColor=#82b366;" vertex="1" parent="1">
          <mxGeometry x="520" y="200" width="120" height="60" as="geometry" />
        </mxCell>
        <mxCell id="pHYF0P7ba6LXsxmvMec0-17" style="edgeStyle=orthogonalEdgeStyle;rounded=0;orthogonalLoop=1;jettySize=auto;html=1;exitX=1;exitY=0.5;exitDx=0;exitDy=0;" edge="1" parent="1" source="pHYF0P7ba6LXsxmvMec0-3" target="pHYF0P7ba6LXsxmvMec0-15">
          <mxGeometry relative="1" as="geometry" />
        </mxCell>
        <mxCell id="pHYF0P7ba6LXsxmvMec0-3" value="PRODUTOS" style="rounded=1;whiteSpace=wrap;html=1;fillColor=#d5e8d4;strokeColor=#82b366;" vertex="1" parent="1">
          <mxGeometry x="530" y="340" width="120" height="60" as="geometry" />
        </mxCell>
        <mxCell id="pHYF0P7ba6LXsxmvMec0-4" value="PAGAMENTOS" style="rounded=1;whiteSpace=wrap;html=1;fillColor=#d5e8d4;strokeColor=#82b366;" vertex="1" parent="1">
          <mxGeometry x="540" y="40" width="120" height="60" as="geometry" />
        </mxCell>
        <mxCell id="pHYF0P7ba6LXsxmvMec0-5" value="ORQUESTRADOR" style="rounded=1;whiteSpace=wrap;html=1;fillColor=#dae8fc;strokeColor=#6c8ebf;" vertex="1" parent="1">
          <mxGeometry x="240" y="190" width="150" height="60" as="geometry" />
        </mxCell>
        <mxCell id="pHYF0P7ba6LXsxmvMec0-8" value="" style="endArrow=classic;html=1;rounded=0;" edge="1" parent="1" target="pHYF0P7ba6LXsxmvMec0-4">
          <mxGeometry width="50" height="50" relative="1" as="geometry">
            <mxPoint x="389" y="200" as="sourcePoint" />
            <mxPoint x="439" y="150" as="targetPoint" />
          </mxGeometry>
        </mxCell>
        <mxCell id="pHYF0P7ba6LXsxmvMec0-9" value="" style="endArrow=classic;html=1;rounded=0;exitX=0.953;exitY=0.983;exitDx=0;exitDy=0;exitPerimeter=0;" edge="1" parent="1" source="pHYF0P7ba6LXsxmvMec0-5" target="pHYF0P7ba6LXsxmvMec0-3">
          <mxGeometry width="50" height="50" relative="1" as="geometry">
            <mxPoint x="390" y="280" as="sourcePoint" />
            <mxPoint x="440" y="230" as="targetPoint" />
          </mxGeometry>
        </mxCell>
        <mxCell id="pHYF0P7ba6LXsxmvMec0-10" value="" style="endArrow=classic;html=1;rounded=0;exitX=0.25;exitY=0;exitDx=0;exitDy=0;entryX=0.973;entryY=0.883;entryDx=0;entryDy=0;entryPerimeter=0;" edge="1" parent="1" source="pHYF0P7ba6LXsxmvMec0-3" target="pHYF0P7ba6LXsxmvMec0-5">
          <mxGeometry width="50" height="50" relative="1" as="geometry">
            <mxPoint x="570" y="330" as="sourcePoint" />
            <mxPoint x="400" y="250" as="targetPoint" />
          </mxGeometry>
        </mxCell>
        <mxCell id="pHYF0P7ba6LXsxmvMec0-11" value="" style="endArrow=classic;html=1;rounded=0;exitX=0;exitY=0.5;exitDx=0;exitDy=0;entryX=1.007;entryY=0.65;entryDx=0;entryDy=0;entryPerimeter=0;" edge="1" parent="1" source="pHYF0P7ba6LXsxmvMec0-2" target="pHYF0P7ba6LXsxmvMec0-5">
          <mxGeometry width="50" height="50" relative="1" as="geometry">
            <mxPoint x="390" y="280" as="sourcePoint" />
            <mxPoint x="440" y="230" as="targetPoint" />
          </mxGeometry>
        </mxCell>
        <mxCell id="pHYF0P7ba6LXsxmvMec0-12" value="" style="endArrow=classic;html=1;rounded=0;exitX=1;exitY=0.5;exitDx=0;exitDy=0;entryX=-0.017;entryY=0.4;entryDx=0;entryDy=0;entryPerimeter=0;" edge="1" parent="1" source="pHYF0P7ba6LXsxmvMec0-5" target="pHYF0P7ba6LXsxmvMec0-2">
          <mxGeometry width="50" height="50" relative="1" as="geometry">
            <mxPoint x="390" y="280" as="sourcePoint" />
            <mxPoint x="440" y="230" as="targetPoint" />
          </mxGeometry>
        </mxCell>
        <mxCell id="pHYF0P7ba6LXsxmvMec0-13" value="" style="endArrow=classic;html=1;rounded=0;entryX=1;entryY=0.25;entryDx=0;entryDy=0;" edge="1" parent="1" source="pHYF0P7ba6LXsxmvMec0-4" target="pHYF0P7ba6LXsxmvMec0-5">
          <mxGeometry width="50" height="50" relative="1" as="geometry">
            <mxPoint x="390" y="280" as="sourcePoint" />
            <mxPoint x="440" y="230" as="targetPoint" />
            <Array as="points">
              <mxPoint x="440" y="180" />
            </Array>
          </mxGeometry>
        </mxCell>
        <mxCell id="pHYF0P7ba6LXsxmvMec0-14" value="" style="endArrow=classic;html=1;rounded=0;entryX=1;entryY=0.75;entryDx=0;entryDy=0;exitX=0;exitY=0.75;exitDx=0;exitDy=0;" edge="1" parent="1" source="pHYF0P7ba6LXsxmvMec0-5" target="pHYF0P7ba6LXsxmvMec0-1">
          <mxGeometry width="50" height="50" relative="1" as="geometry">
            <mxPoint x="230" y="220" as="sourcePoint" />
            <mxPoint x="440" y="230" as="targetPoint" />
            <Array as="points">
              <mxPoint x="210" y="235" />
            </Array>
          </mxGeometry>
        </mxCell>
        <mxCell id="pHYF0P7ba6LXsxmvMec0-15" value="DB" style="shape=cylinder3;whiteSpace=wrap;html=1;boundedLbl=1;backgroundOutline=1;size=15;fillColor=#dae8fc;strokeColor=#007FFF;" vertex="1" parent="1">
          <mxGeometry x="760" y="340" width="50" height="70" as="geometry" />
        </mxCell>
        <mxCell id="pHYF0P7ba6LXsxmvMec0-18" value="DB" style="shape=cylinder3;whiteSpace=wrap;html=1;boundedLbl=1;backgroundOutline=1;size=15;fillColor=#dae8fc;strokeColor=#007FFF;" vertex="1" parent="1">
          <mxGeometry x="750" y="190" width="60" height="80" as="geometry" />
        </mxCell>
        <mxCell id="pHYF0P7ba6LXsxmvMec0-20" value="DB" style="shape=cylinder3;whiteSpace=wrap;html=1;boundedLbl=1;backgroundOutline=1;size=15;fillColor=#dae8fc;strokeColor=#007FFF;" vertex="1" parent="1">
          <mxGeometry x="750" y="30" width="60" height="80" as="geometry" />
        </mxCell>
        <mxCell id="pHYF0P7ba6LXsxmvMec0-21" style="edgeStyle=orthogonalEdgeStyle;rounded=0;orthogonalLoop=1;jettySize=auto;html=1;entryX=0;entryY=0.5;entryDx=0;entryDy=0;entryPerimeter=0;" edge="1" parent="1" source="pHYF0P7ba6LXsxmvMec0-4" target="pHYF0P7ba6LXsxmvMec0-20">
          <mxGeometry relative="1" as="geometry" />
        </mxCell>
        <mxCell id="pHYF0P7ba6LXsxmvMec0-22" value="FRONT&lt;div&gt;END&lt;/div&gt;" style="whiteSpace=wrap;html=1;aspect=fixed;fillColor=#dae8fc;strokeColor=#6c8ebf;" vertex="1" parent="1">
          <mxGeometry x="30" y="20" width="80" height="80" as="geometry" />
        </mxCell>
        <mxCell id="pHYF0P7ba6LXsxmvMec0-23" style="edgeStyle=orthogonalEdgeStyle;rounded=0;orthogonalLoop=1;jettySize=auto;html=1;entryX=0.333;entryY=0;entryDx=0;entryDy=0;entryPerimeter=0;" edge="1" parent="1" source="pHYF0P7ba6LXsxmvMec0-22" target="pHYF0P7ba6LXsxmvMec0-1">
          <mxGeometry relative="1" as="geometry" />
        </mxCell>
        <mxCell id="pHYF0P7ba6LXsxmvMec0-29" style="edgeStyle=orthogonalEdgeStyle;rounded=0;orthogonalLoop=1;jettySize=auto;html=1;entryX=1;entryY=0.75;entryDx=0;entryDy=0;" edge="1" parent="1" source="pHYF0P7ba6LXsxmvMec0-25" target="pHYF0P7ba6LXsxmvMec0-22">
          <mxGeometry relative="1" as="geometry">
            <mxPoint x="150" y="80" as="targetPoint" />
          </mxGeometry>
        </mxCell>
        <mxCell id="pHYF0P7ba6LXsxmvMec0-25" value="Actor" style="shape=umlActor;verticalLabelPosition=bottom;verticalAlign=top;html=1;outlineConnect=0;" vertex="1" parent="1">
          <mxGeometry x="200" y="40" width="40" height="60" as="geometry" />
        </mxCell>
      </root>
    </mxGraphModel>
  </diagram>
</mxfile>
